#!OML:ASF H:\ManfredETheater\Project 1\Capture day 1\Session 1\subject.ASF
:FULLY-SPECIFIED
:DEGREES
336
root 0.744723 15.5796 -31.5721 -150.773 4.18498 173.197
lowerback 18.4971 -2.00561 -1.57027
upperback -1.56172 -2.72691 1.94957
thorax -11.9895 -1.06473 3.82623
lowerneck -20.0356 0.18932 -3.18452
upperneck -5.18054 2.15593 -0.725569
head 1.70473 1.61144 0.494902
rclavicle 3.57812e-015 -1.59028e-015
rhumerus -63.1235 -6.64851 -76.6873
rradius 65.3496
rwrist -16.8944
rhand -29.5743 7.65681
rfingers 7.12502
rthumb -2.90631 -22.3031
lclavicle 3.57812e-015 -1.59028e-015
lhumerus -34.8197 -21.4749 99.5691
lradius 102.933
lwrist 13.8667
lhand -21.5691 -9.08191
lfingers 7.12502
lthumb 4.82486 20.8432
rfemur -65.8404 -10.4016 22.7375
rtibia 81.8898
rfoot -27.4283 -11.452
rtoes -41.7308
lfemur -11.9415 -5.83585 -25.9255
ltibia 52.9842
lfoot 28.3942 -10.6288
ltoes 10.981
337
root 0.752061 15.6405 -31.9488 -150.887 4.55479 174.022
lowerback 18.9418 -1.82457 -0.792443
upperback -1.35874 -2.26691 2.11158
thorax -12.0723 -0.883365 3.44643
lowerneck -19.8083 0.213809 -3.11651
upperneck -5.57632 2.19958 -0.980099
head 1.5316 1.64776 0.395778
rclavicle -7.15625e-015 -9.54166e-015
rhumerus -59.518 -6.65954 -77.9881
rradius 64.9933
rwrist -16.7808
rhand -29.6989 7.56321
rfingers 7.12502
rthumb -3.02666 -22.3951
lclavicle -7.15625e-015 -9.54166e-015
lhumerus -35.3216 -19.519 99.8094
lradius 96.9671
lwrist 14.8099
lhand -22.2567 -9.49787
lfingers 7.12502
lthumb 4.16093 20.4412
rfemur -63.5068 -9.78314 22.8372
rtibia 81.1123
rfoot -27.7487 -11.2022
rtoes -42.5624
lfemur -14.5157 -4.66045 -25.0524
ltibia 57.6075
lfoot 24.5385 -9.48824
ltoes 8.76955
338
root 0.760561 15.6954 -32.3282 -151.004 4.86453 174.924
lowerback 19.332 -1.66409 0.0321066
upperback -1.19338 -1.80989 2.31382
thorax -12.1568 -0.70376 3.07913
lowerneck -19.5753 0.257761 -3.06246
upperneck -5.80698 2.25138 -1.24825
head 1.41522 1.6762 0.297567
rclavicle -9.93923e-015 -2.78299e-014
rhumerus -55.9272 -6.18407 -79.4743
rradius 64.9941
rwrist -16.8264
rhand -29.7672 7.46335
rfingers 7.12502
rthumb -3.09266 -22.494
lclavicle -9.93923e-015 -2.78299e-014
lhumerus -35.6676 -17.3346 99.839
lradius 90.9411
lwrist 15.1194
lhand -22.9874 -10.0509
lfingers 7.12502
lthumb 3.45531 19.9009
rfemur -61.05 -9.14072 23.0487
rtibia 80.1585
rfoot -28.1184 -11.0304
rtoes -43.3047
lfemur -17.2667 -3.52232 -24.0674
ltibia 62.3505
lfoot 20.7195 -8.57351
ltoes 5.69353
339
root 0.771209 15.7427 -32.7098 -151.104 5.12294 175.828
lowerback 19.6475 -1.52775 0.828809
upperback -1.07999 -1.38386 2.53323
thorax -12.2458 -0.536148 2.75064
lowerneck -19.353 0.330993 -2.99547
upperneck -5.86128 2.31973 -1.53045
head 1.36179 1.6996 0.19626
rclavicle -1.27222e-014 2.54444e-014
rhumerus -52.4177 -5.24391 -81.0709
rradius 65.3965
rwrist -16.8798
rhand -29.7944 7.42655
rfingers 7.12502
rthumb -3.11888 -22.5304
lclavicle -1.27222e-014 2.54444e-014
lhumerus -36.0468 -15.0073 99.6564
lradius 85.1636
lwrist 14.5997
lhand -23.7081 -10.6167
lfingers 7.12502
lthumb 2.75924 19.3452
rfemur -58.5239 -8.52187 23.3249
rtibia 79.0502
rfoot -28.5368 -10.9653
rtoes -43.9579
lfemur -20.2097 -2.44107 -23.0366
ltibia 67.133
lfoot 17.2145 -7.89705
ltoes 2.85814
340
root 0.784288 15.781 -33.0934 -151.174 5.34608 176.67
lowerback 19.8715 -1.41089 1.54701
upperback -1.02406 -1.0026 2.74312
thorax -12.337 -0.386182 2.46574
lowerneck -19.1569 0.42915 -2.90884
upperneck -5.75433 2.40232 -1.8121
head 1.36838 1.71845 0.0950514
rclavicle -3.26007e-014 -1.27222e-014
rhumerus -49.0517 -3.92273 -82.7008
rradius 66.2573
rwrist -16.8142
rhand -29.7305 7.42666
rfingers 7.12502
rthumb -3.05715 -22.5312
lclavicle -3.26007e-014 -1.27222e-014
lhumerus -36.6649 -12.6859 99.2797
lradius 80.0112
lwrist 13.2665
lhand -24.3678 -11.1373
lfingers 7.12502
lthumb 2.1221 18.8318
rfemur -55.9799 -7.95756 23.6086
rtibia 77.8171
rfoot -28.9882 -11.0054
rtoes -44.5277
lfemur -23.3511 -1.42327 -22.0288
ltibia 71.8781
lfoot 14.1367 -7.39176
ltoes 1.06528
341
root 0.800343 15.81 -33.4787 -151.226 5.54839 177.392
lowerback 20.0268 -1.31158 2.13757
upperback -1.0241 -0.682593 2.91618
thorax -12.4438 -0.26062 2.22943
lowerneck -18.9903 0.545678 -2.79024
upperneck -5.52696 2.4936 -2.06929
head 1.42151 1.73341 -0.00153017
rclavicle -3.10104e-014 -6.75868e-014
rhumerus -45.8812 -2.31557 -84.3175
rradius 67.6141
rwrist -16.5953
rhand -29.5405 7.4801
rfingers 7.12502
rthumb -2.87369 -22.4803
lclavicle -3.10104e-014 -6.75868e-014
lhumerus -37.7157 -10.5548 98.7285
lradius 75.8828
lwrist 11.3857
lhand -24.8648 -11.5412
lfingers 7.12502
lthumb 1.64218 18.4322
rfemur -53.4297 -7.47201 23.8346
rtibia 76.4829
rfoot -29.4668 -11.1335
rtoes -45.0322
lfemur -26.6604 -0.470964 -21.111
ltibia 76.5066
lfoot 11.4181 -7.05527
ltoes 0.336828
342
root 0.819214 15.8309 -33.8652 -151.264 5.74591 177.995
lowerback 20.1465 -1.22518 2.60664
upperback -1.07471 -0.419873 3.03499
thorax -12.582 -0.159444 2.01923
lowerneck -18.8597 0.671709 -2.63466
upperneck -5.22693 2.58684 -2.27982
head 1.50591 1.74549 -0.0882955
rclavicle -9.54166e-015 2.22639e-014
rhumerus -42.954 -0.520297 -85.8992
rradius 69.5158
rwrist -16.2736
rhand -29.1952 7.61771
rfingers 7.12502
rthumb -2.54023 -22.3469
lclavicle -9.54166e-015 2.22639e-014
lhumerus -39.3332 -8.83169 98.0544
lradius 73.0881
lwrist 9.41991
lhand -25.1674 -11.8563
lfingers 7.12502
lthumb 1.34991 18.1192
rfemur -50.8791 -7.04631 23.9843
rtibia 75.0536
rfoot -29.9579 -11.3029
rtoes -45.4577
lfemur -30.119 0.443206 -20.2983
ltibia 80.9525
lfoot 8.92395 -6.8491
ltoes 0.280983
343
root 0.841144 15.8449 -34.2549 -151.307 5.9451 178.491
lowerback 20.2502 -1.14709 2.97503
upperback -1.15982 -0.205684 3.08627
thorax -12.7466 -0.0807999 1.80602
lowerneck -18.7697 0.793405 -2.44158
upperneck -4.90145 2.66817 -2.41812
head 1.60599 1.75229 -0.158594
rclavicle -3.02153e-014 -2.78299e-014
rhumerus -40.304 1.37472 -87.4397
rradius 71.9808
rwrist -15.9651
rhand -28.6948 7.78984
rfingers 7.12502
rthumb -2.05696 -22.18
lclavicle -3.02153e-014 -2.78299e-014
lhumerus -41.5733 -7.70738 97.3363
lradius 71.8009
lwrist 7.91152
lhand -25.2289 -12.1173
lfingers 7.12502
lthumb 1.29047 17.8586
rfemur -48.2878 -6.66602 24.0512
rtibia 73.5168
rfoot -30.4542 -11.4879
rtoes -45.8343
lfemur -33.6715 1.34302 -19.5917
ltibia 85.1452
lfoot 6.52268 -6.74281
ltoes 0.53706
344
root 0.866181 15.8543 -34.6503 -151.351 6.15428 178.876
lowerback 20.3176 -1.06449 3.24954
upperback -1.26834 -0.0256581 3.05989
thorax -12.9141 -0.0191972 1.56928
lowerneck -18.7132 0.888732 -2.23197
upperneck -4.5973 2.71538 -2.4612
head 1.70381 1.74735 -0.203463
rclavicle -3.26007e-014 -1.11319e-014
rhumerus -37.9642 3.28791 -88.9215
rradius 75.0162
rwrist -15.7614
rhand -28.059 7.96451
rfingers 7.12502
rthumb -1.44294 -22.0104
lclavicle -3.26007e-014 -1.11319e-014
lhumerus -44.4022 -7.28786 96.6892
lradius 72.0161
lwrist 7.32956
lhand -25.0552 -12.3558
lfingers 7.12502
lthumb 1.45827 17.6189
rfemur -45.6396 -6.323 24.016
rtibia 71.8468
rfoot -30.9369 -11.6573
rtoes -46.1768
lfemur -37.2943 2.23316 -19.0188
ltibia 89.0209
lfoot 4.13294 -6.69058
ltoes 0.643543
345
root 0.894476 15.862 -35.054 -151.396 6.34369 179.171
lowerback 20.3397 -0.975692 3.4801
upperback -1.39136 0.134331 2.95768
thorax -13.0698 0.0291441 1.27779
lowerneck -18.674 0.933432 -2.02394
upperneck -4.35159 2.701 -2.40064
head 1.78313 1.72008 -0.21942
rclavicle 1.51076e-014 -1.66979e-014
rhumerus -35.9589 5.16597 -90.3257
rradius 78.6005
rwrist -15.7296
rhand -27.2985 8.14176
rfingers 7.12502
rthumb -0.708409 -21.8368
lclavicle 1.51076e-014 -1.66979e-014
lhumerus -47.708 -7.53562 96.1894
lradius 73.5583
lwrist 7.84057
lhand -24.6121 -12.5297
lfingers 7.12502
lthumb 1.88619 17.4417
rfemur -42.8989 -6.0175 23.9027
rtibia 70.0019
rfoot -31.3911 -11.7565
rtoes -46.4613
lfemur -40.9555 3.10799 -18.5589
ltibia 92.5165
lfoot 1.7335 -6.66101
ltoes 0.197773
346
root 0.92669 15.8694 -35.4675 -151.389 6.52984 179.425
lowerback 20.2493 -0.848382 3.68944
upperback -1.53413 0.32076 2.79239
thorax -13.1802 0.0851032 0.917658
lowerneck -18.6395 0.904256 -1.8413
upperneck -4.17401 2.59918 -2.24496
head 1.83797 1.65833 -0.207072
rclavicle 5.96354e-015 -1.19271e-014
rhumerus -34.2886 6.96576 -91.6075
rradius 82.6686
rwrist -15.8513
rhand -26.4729 8.30844
rfingers 7.12502
rthumb 0.0889918 -21.6713
lclavicle 5.96354e-015 -1.19271e-014
lhumerus -51.3414 -8.32199 95.8783
lradius 76.1421
lwrist 9.36658
lhand -23.9298 -12.5853
lfingers 7.12502
lthumb 2.54512 17.3793
rfemur -40.1039 -5.69702 23.7559
rtibia 67.9457
rfoot -31.7344 -11.8262
rtoes -46.79
lfemur -44.6898 4.00947 -18.1933
ltibia 95.5913
lfoot -0.628843 -6.62032
ltoes -0.79
